<svg xmlns="http://www.w3.org/2000/svg" xmlns:xlink="http://www.w3.org/1999/xlink" version="1.1" style="enable-background:new 0 0 512.001 512.001;" xml:space="preserve" width="512.001" height="512.001"><rect id="backgroundrect" width="100%" height="100%" x="0" y="0" fill="none" stroke="none"/>

















<g class="currentLayer" style=""><title>Layer 1</title><path style="" d="M499.92,188.26l-165.839-15.381L268.205,19.91c-4.612-10.711-19.799-10.711-24.411,0l-65.875,152.97  L12.08,188.26c-11.612,1.077-16.305,15.52-7.544,23.216l125.126,109.922L93.044,483.874c-2.564,11.376,9.722,20.302,19.749,14.348  L256,413.188l143.207,85.034c10.027,5.954,22.314-2.972,19.75-14.348l-36.619-162.476l125.126-109.922  C516.225,203.78,511.532,189.337,499.92,188.26z" id="svg_1" class="" fill="#ffffff" fill-opacity="1"/><path style="" d="M268.205,19.91c-4.612-10.711-19.799-10.711-24.411,0l-65.875,152.97L12.08,188.26  c-11.612,1.077-16.305,15.52-7.544,23.216l125.126,109.922L93.044,483.874c-2.564,11.376,9.722,20.302,19.749,14.348l31.963-18.979  c4.424-182.101,89.034-310.338,156.022-383.697L268.205,19.91z" id="svg_2" class="" fill="#ffffff" fill-opacity="1"/><g id="svg_3">
</g><g id="svg_4">
</g><g id="svg_5">
</g><g id="svg_6">
</g><g id="svg_7">
</g><g id="svg_8">
</g><g id="svg_9">
</g><g id="svg_10">
</g><g id="svg_11">
</g><g id="svg_12">
</g><g id="svg_13">
</g><g id="svg_14">
</g><g id="svg_15">
</g><g id="svg_16">
</g><g id="svg_17">
</g></g></svg>