<svg xmlns="http://www.w3.org/2000/svg" xmlns:xlink="http://www.w3.org/1999/xlink" version="1.1" style="" xml:space="preserve" width="533" height="511"><rect id="backgroundrect" width="100%" height="100%" x="0" y="0" fill="none" stroke="none"/>

















<g class="currentLayer" style=""><title>Layer 1</title><g id="svg_1" class="" stroke-width="22" stroke="#57debe" stroke-opacity="1" fill-opacity="1" fill="#57debe">
	<g id="svg_2" stroke-width="22" stroke="#57debe" stroke-opacity="1" fill="#57debe">
		<path d="M520.9670810623169,196.781 c-2.56,-7.875 -9.271,-13.243 -17.518,-14.008 l-156.535,-14.518 l-31.029,-72.054 c-1.6390000000000002,-3.8040000000000003 -6.049,-5.562 -9.854,-3.922 c-3.8040000000000003,1.6380000000000001 -5.5600000000000005,6.05 -3.922,9.853 l32.791,76.144 c1.086,2.521 3.463,4.248 6.196,4.501 l160.969,14.929 c3.194,0.29600000000000004 4.307,2.692 4.638,3.708 c0.33000000000000007,1.016 0.8380000000000001,3.608 -1.572,5.725 L383.6780810623169,313.835 c-2.063,1.812 -2.9699999999999998,4.605 -2.366,7.284 l35.545,157.703 c0.7050000000000001,3.13 -1.229,4.929 -2.095,5.557 c-0.8640000000000001,0.6280000000000001 -3.17,1.915 -5.931,0.274 l-139.003,-82.537 c-2.359,-1.4 -5.299,-1.4 -7.657,0 l-139.003,82.537 c-2.7600000000000002,1.6420000000000001 -5.066,0.35400000000000004 -5.931,-0.274 s-2.8,-2.427 -2.095,-5.556 l18.348,-81.406 c0.911,-4.041 -1.6270000000000002,-8.055 -5.667,-8.965 c-4.047,-0.91 -8.054,1.6270000000000002 -8.965,5.667 l-18.348,81.407 c-1.82,8.078 1.211,16.12 7.91,20.988 c6.699,4.866 15.285,5.265 22.404,1.037 l135.174,-80.265 l135.174,80.265 c3.2800000000000002,1.947 6.87,2.9130000000000003 10.443,2.9130000000000003 c4.185,0 8.347,-1.3250000000000002 11.96,-3.95 c6.7,-4.868 9.73,-12.909 7.91,-20.989 l-34.565,-153.36 L515.0290810623169,218.41 C521.2510810623169,212.944 523.5250810623169,204.657 520.9670810623169,196.781 z" id="svg_3" stroke-width="22" stroke="#0bde57" stroke-opacity="1" fill="#0bde57"/>
	</g>
</g><g id="svg_4" class="" stroke-width="20" stroke="#57debe" stroke-opacity="1">
	<g id="svg_5" stroke-width="20" stroke="#57debe" stroke-opacity="1">
		<path d="M302.1010810623169,64.195 l-17.367,-40.328 c-3.276,-7.606 -10.454,-12.33 -18.736,-12.33 c-8.28,0 -15.459,4.725 -18.735,12.331 l-62.18,144.388 L28.551081062316893,182.773 c-8.245,0.7650000000000001 -14.958,6.132 -17.518,14.008 c-2.559,7.875 -0.28400000000000003,16.163 5.938,21.629 l118.106,103.755 l-8.991,39.892 c-0.911,4.041 1.6270000000000002,8.055 5.667,8.965 c0.556,0.125 1.11,0.18600000000000003 1.6560000000000001,0.18600000000000003 c3.43,0 6.524,-2.367 7.309,-5.853 l9.97,-44.237 c0.6040000000000001,-2.6790000000000003 -0.30400000000000005,-5.473 -2.366,-7.284 L26.870081062316896,207.141 c-2.41,-2.117 -1.9020000000000001,-4.709 -1.5710000000000002,-5.725 c0.33000000000000007,-1.016 1.4420000000000002,-3.412 4.6370000000000005,-3.708 l160.968,-14.929 c2.733,-0.253 5.11,-1.98 6.196,-4.501 L261.04008106231686,29.801 c1.2690000000000001,-2.946 3.891,-3.265 4.959,-3.265 c1.069,0 3.6910000000000003,0.31800000000000006 4.96,3.2640000000000002 l17.367,40.327 c1.6400000000000001,3.8040000000000003 6.05,5.561 9.854,3.922 C301.9830810623169,72.411 303.73908106231687,67.999 302.1010810623169,64.195 z" id="svg_6" stroke-width="20" stroke="#0bde57" stroke-opacity="1"/>
	</g>
</g><g id="svg_7" class="">
</g><g id="svg_8" class="">
</g><g id="svg_9" class="">
</g><g id="svg_10" class="">
</g><g id="svg_11" class="">
</g><g id="svg_12" class="">
</g><g id="svg_13" class="">
</g><g id="svg_14" class="">
</g><g id="svg_15" class="">
</g><g id="svg_16" class="">
</g><g id="svg_17" class="">
</g><g id="svg_18" class="">
</g><g id="svg_19" class="">
</g><g id="svg_20" class="">
</g><g id="svg_21" class="">
</g></g></svg>